HIERARCHY
ROOT pelvis
{
	OFFSET -0.099584 -26.635582 1.850026
	CHANNELS 6 Xposition Yposition Zposition Zrotation Yrotation Xrotation
	JOINT left_hip
	{
		OFFSET 6.211795 -9.182106 -2.204521
		CHANNELS 3 Zrotation Yrotation Xrotation
		JOINT left_knee
		{
			OFFSET 4.633109 -42.567017 0.389795
			CHANNELS 3 Zrotation Yrotation Xrotation
			JOINT left_ankle
			{
				OFFSET -1.640086 -47.114273 -4.275586
				CHANNELS 3 Zrotation Yrotation Xrotation
				JOINT left_foot
				{
					OFFSET 4.452620 -6.610764 12.966256
					CHANNELS 3 Zrotation Yrotation Xrotation
					End Site
					{
						OFFSET 0.000000 0.000000 0.000000
					}
				}
			}
		}
	}
	JOINT right_hip
	{
		OFFSET -6.512502 -10.102238 -1.781430
		CHANNELS 3 Zrotation Yrotation Xrotation
		JOINT right_knee
		{
			OFFSET -4.971094 -42.680836 -0.977768
			CHANNELS 3 Zrotation Yrotation Xrotation
			JOINT right_ankle
			{
				OFFSET 2.184703 -46.712280 -3.851226
				CHANNELS 3 Zrotation Yrotation Xrotation
				JOINT right_foot
				{
					OFFSET -4.009747 -6.987427 13.916187
					CHANNELS 3 Zrotation Yrotation Xrotation
					End Site
					{
						OFFSET 0.000000 0.000000 0.000000
					}
				}
			}
		}
	}
	JOINT spine1
	{
		OFFSET 0.520760 13.880336 -3.458407
		CHANNELS 3 Zrotation Yrotation Xrotation
		JOINT spine2
		{
			OFFSET 0.517517 15.754037 3.582482
			CHANNELS 3 Zrotation Yrotation Xrotation
			JOINT spine3
			{
				OFFSET -0.346111 6.287867 0.433931
				CHANNELS 3 Zrotation Yrotation Xrotation
				JOINT neck
				{
					OFFSET -1.385784 22.548601 -2.742398
					CHANNELS 3 Zrotation Yrotation Xrotation
					JOINT head
					{
						OFFSET 0.951086 9.863846 5.988714
						CHANNELS 3 Zrotation Yrotation Xrotation
						End Site
						{
							OFFSET 0.000000 0.000000 0.000000
						}
					}
				}
				JOINT left_collar
				{
					OFFSET 8.027418 12.157059 -1.828810
					CHANNELS 3 Zrotation Yrotation Xrotation
					JOINT left_shoulder
					{
						OFFSET 12.886099 5.173325 -2.243435
						CHANNELS 3 Zrotation Yrotation Xrotation
						JOINT left_elbow
						{
							OFFSET 29.194897 -2.228384 -2.336014
							CHANNELS 3 Zrotation Yrotation Xrotation
							JOINT left_wrist
							{
								OFFSET 28.775101 1.474442 -0.902235
								CHANNELS 3 Zrotation Yrotation Xrotation
								JOINT left_hand
								{
									OFFSET 8.899994 -1.088192 -1.629311
									CHANNELS 3 Zrotation Yrotation Xrotation
									End Site
									{
										OFFSET 0.000000 0.000000 0.000000
									}
								}
							}
						}
					}
				}
				JOINT right_collar
				{
					OFFSET -9.202812 11.990282 -2.184024
					CHANNELS 3 Zrotation Yrotation Xrotation
					JOINT right_shoulder
					{
						OFFSET -12.063190 5.322075 -0.917062
						CHANNELS 3 Zrotation Yrotation Xrotation
						JOINT right_elbow
						{
							OFFSET -29.339024 -2.059385 -3.335225
							CHANNELS 3 Zrotation Yrotation Xrotation
							JOINT right_wrist
							{
								OFFSET -29.568916 1.071762 -0.869044
								CHANNELS 3 Zrotation Yrotation Xrotation
								JOINT right_hand
								{
									OFFSET -9.198730 -0.893108 -1.058223
									CHANNELS 3 Zrotation Yrotation Xrotation
									End Site
									{
										OFFSET 0.000000 0.000000 0.000000
									}
								}
							}
						}
					}
				}
			}
		}
	}
}
MOTION
Frames: 7
Frame Time: 0.008333
5.399689 98.058853 17.119417 -176.679962 4.465496 174.034637 5.472523 -9.340000 -21.627972 -4.121312 5.137064 47.218460 2.306654 17.347424 -14.077549 7.261940 7.321674 -16.685858 2.424299 5.287178 -21.438974 7.883501 -1.536971 46.303337 -6.919281 -15.293289 -21.099642 19.795477 13.993449 4.153610 4.767499 0.271279 16.368670 -2.738586 -1.329870 10.439781 2.535642 2.893424 -6.086461 0.013532 8.724309 17.529696 1.507887 -2.884350 -16.960745 15.549953 -39.234821 -11.401092 -2.033326 -47.505947 -26.007391 10.943179 -9.377070 7.687998 16.213167 -14.224555 36.920998 -87.771049 -75.079803 -33.825935 -20.714510 38.639668 -12.774796 3.655520 46.074753 -26.341766 -12.578571 13.988534 -10.225432 -11.414564 12.052325 39.300827 90.039032 76.574806 -29.792765 
5.449802 97.192368 17.261175 -176.704163 4.402724 173.980392 5.699040 -9.469101 -22.949715 -4.175731 5.568387 49.419334 2.293550 17.606379 -14.627034 7.190237 7.354170 -16.660467 2.175400 5.377474 -22.704350 8.132045 -2.054976 48.502205 -6.809564 -15.484663 -21.950018 19.657158 13.963581 4.217009 4.753919 0.129308 17.252163 -2.855397 -1.269644 10.273628 2.515051 2.882512 -5.899919 -0.025918 8.741526 17.105955 1.644577 -2.800270 -17.620296 16.083984 -39.150234 -11.732679 -1.665184 -47.395199 -26.273483 10.904925 -9.404343 7.697119 16.920378 -14.202376 36.434483 -87.961517 -75.112984 -33.704575 -21.417885 38.516842 -13.207964 3.196697 45.724678 -26.510151 -12.447467 14.358358 -9.775942 -11.957056 12.154521 38.963879 90.293358 76.609268 -29.583115 
5.498760 96.293388 17.396528 -176.729279 4.329647 173.916412 5.931949 -9.578197 -24.292816 -4.199019 6.010928 51.660023 2.268611 17.808393 -15.141950 7.082741 7.390775 -16.636395 1.925701 5.469125 -23.964560 8.339337 -2.589672 50.704273 -6.735794 -15.679336 -22.776428 19.613676 13.903081 4.281991 4.723947 -0.019984 18.132969 -2.965151 -1.223912 10.107384 2.515486 2.860354 -5.710446 -0.091512 8.734660 16.740654 1.751420 -2.677901 -18.341759 16.566298 -39.071014 -12.004687 -1.256261 -47.265675 -26.634354 10.908475 -9.435545 7.721596 17.399639 -14.136042 36.083652 -88.186142 -75.148895 -33.552753 -22.068783 38.434723 -13.509296 2.626763 45.394390 -26.878710 -12.369478 14.698527 -9.366523 -12.392133 12.195181 38.628689 90.580482 76.643280 -29.344681 
5.547905 95.365135 17.529068 -176.759583 4.229167 173.850876 6.181263 -9.701429 -25.677938 -4.226563 6.456472 53.939560 2.248413 17.979931 -15.588350 6.967225 7.448529 -16.615919 1.653448 5.554347 -25.231176 8.512284 -3.157180 52.903786 -6.646042 -15.853012 -23.564657 19.538908 13.853687 4.354529 4.697159 -0.159132 18.994337 -3.068393 -1.200090 9.970764 2.525782 2.828874 -5.541715 -0.191099 8.676195 16.454403 1.830233 -2.545036 -19.154192 16.991619 -39.035812 -12.181765 -0.760780 -47.094456 -27.133959 10.974611 -9.488381 7.759303 17.516104 -14.042938 35.791752 -88.417862 -75.182655 -33.391785 -22.706001 38.365944 -13.776659 2.078828 45.081100 -27.354240 -12.330935 15.015970 -9.057579 -12.644844 12.179046 38.411175 90.866547 76.679337 -29.105030 
5.594246 94.407700 17.665604 -176.797516 4.111180 173.792114 6.445921 -9.830261 -27.111965 -4.247106 6.926642 56.248730 2.199427 18.135914 -16.014286 6.875246 7.486650 -16.565996 1.349498 5.656133 -26.534533 8.661312 -3.774613 55.125290 -6.602048 -16.030195 -24.303579 19.601715 13.805336 4.457267 4.639626 -0.308850 19.887619 -3.153584 -1.191437 9.788722 2.558927 2.785681 -5.379036 -0.351551 8.577655 16.258802 1.934209 -2.353999 -20.077139 17.422739 -38.956909 -12.332108 -0.289092 -46.930073 -27.647865 11.080009 -9.532990 7.788946 17.407717 -13.966344 35.573372 -88.636833 -75.224419 -33.259377 -23.288921 38.296009 -13.995906 1.481450 44.867809 -27.957943 -12.286371 15.225200 -8.861354 -12.795789 12.156872 38.161526 91.194870 76.715157 -28.832098 
5.637917 93.427162 17.805193 -176.835739 4.000921 173.738007 6.738878 -9.948891 -28.592176 -4.275947 7.417962 58.603107 2.286838 18.275814 -16.297770 6.497060 7.494812 -16.557444 1.033632 5.767052 -27.868134 8.768638 -4.411815 57.377033 -6.517778 -16.153519 -25.041466 19.668518 13.692572 4.628033 4.571960 -0.430897 20.763962 -3.205873 -1.211077 9.686861 2.598363 2.750533 -5.324471 -0.531207 8.457379 16.257017 2.008064 -2.144663 -21.182796 17.784313 -38.877529 -12.379047 0.217937 -46.742397 -28.265299 11.181844 -9.635444 7.942346 17.111475 -13.768296 35.298717 -88.994194 -75.266899 -32.935707 -23.860359 38.259659 -14.163772 0.903228 44.681484 -28.623449 -12.258561 15.374854 -8.812589 -12.786103 12.075557 37.942890 91.569359 76.767593 -28.513464 
5.681934 92.430008 17.944986 -176.868240 3.854226 173.669312 7.030968 -10.058849 -30.103828 -4.280205 7.865020 60.998497 2.130433 18.351616 -16.593781 6.590757 7.629298 -16.536573 0.701047 5.854027 -29.191250 8.820405 -5.083040 59.610649 -6.336027 -16.221151 -25.705521 19.441702 13.676222 4.582534 4.503115 -0.587891 21.616932 -3.269023 -1.224429 9.554511 2.666507 2.672989 -5.088119 -0.703194 8.386872 16.092276 2.042815 -1.966376 -22.274437 18.234735 -38.714752 -12.563733 0.695969 -46.586330 -28.840277 11.305763 -9.692953 7.921947 16.712109 -13.632639 35.202499 -89.242554 -75.296600 -32.803322 -24.458132 38.194038 -14.496244 0.355194 44.573853 -29.339834 -12.233809 15.447045 -8.798947 -12.712412 11.989557 37.697048 91.907516 76.809654 -28.257647 
